/* XPM */
static char * gkonap_xpm[] = {
"32 32 369 2",
"  	c None",
". 	c #580000",
"+ 	c #830000",
"@ 	c #900000",
"# 	c #8F0000",
"$ 	c #D50000",
"% 	c #8B0000",
"& 	c #990000",
"* 	c #980000",
"= 	c #9E0000",
"- 	c #4F0000",
"; 	c #D10000",
"> 	c #CA0000",
", 	c #8E0000",
"' 	c #8C0000",
") 	c #930000",
"! 	c #940000",
"~ 	c #920000",
"{ 	c #960000",
"] 	c #510000",
"^ 	c #A10000",
"/ 	c #CE0000",
"( 	c #C80000",
"_ 	c #C50000",
": 	c #7E0000",
"< 	c #840000",
"[ 	c #A60000",
"} 	c #530000",
"| 	c #CC0000",
"1 	c #C70000",
"2 	c #C30000",
"3 	c #C00000",
"4 	c #B20000",
"5 	c #910000",
"6 	c #9D0000",
"7 	c #A20000",
"8 	c #A30000",
"9 	c #9F0000",
"0 	c #9B0000",
"a 	c #970000",
"b 	c #8A0000",
"c 	c #860000",
"d 	c #9C0000",
"e 	c #CB0000",
"f 	c #C20000",
"g 	c #BE0000",
"h 	c #BB0000",
"i 	c #B70000",
"j 	c #B40000",
"k 	c #B10000",
"l 	c #AD0000",
"m 	c #AA0000",
"n 	c #A70000",
"o 	c #A00000",
"p 	c #890000",
"q 	c #850000",
"r 	c #810000",
"s 	c #800000",
"t 	c #BF0000",
"u 	c #BC0000",
"v 	c #B80000",
"w 	c #B60000",
"x 	c #B40505",
"y 	c #B30B0B",
"z 	c #B10F0F",
"A 	c #AF1313",
"B 	c #AC1414",
"C 	c #A91313",
"D 	c #A51212",
"E 	c #A21212",
"F 	c #9F1212",
"G 	c #9C1212",
"H 	c #991212",
"I 	c #971414",
"J 	c #951616",
"K 	c #931818",
"L 	c #911B1B",
"M 	c #8F1D1D",
"N 	c #961919",
"O 	c #730707",
"P 	c #CC1313",
"Q 	c #C91D1D",
"R 	c #C92929",
"S 	c #C93333",
"T 	c #C93C3C",
"U 	c #C84545",
"V 	c #C84B4B",
"W 	c #C54A4A",
"X 	c #C24949",
"Y 	c #C04949",
"Z 	c #BD4848",
"` 	c #BB4848",
" .	c #B84848",
"..	c #B64848",
"+.	c #B44848",
"@.	c #B24848",
"#.	c #AF4848",
"$.	c #AD4848",
"%.	c #AA4848",
"&.	c #A84848",
"*.	c #A54848",
"=.	c #A34747",
"-.	c #A04747",
";.	c #A72D2D",
">.	c #6B0404",
",.	c #C74D4D",
"'.	c #D35656",
").	c #D05555",
"!.	c #CE5555",
"~.	c #CC5555",
"{.	c #CA5555",
"].	c #C85555",
"^.	c #C55555",
"/.	c #C45656",
"(.	c #C25757",
"_.	c #C05858",
":.	c #BE5959",
"<.	c #BC5959",
"[.	c #BA5A5A",
"}.	c #B85A5A",
"|.	c #B55B5B",
"1.	c #B25B5B",
"2.	c #B05A5A",
"3.	c #AD5A5A",
"4.	c #AB5959",
"5.	c #A85757",
"6.	c #A65555",
"7.	c #A45555",
"8.	c #AD2D2D",
"9.	c #6F0000",
"0.	c #BF4F4F",
"a.	c #D26464",
"b.	c #CF6363",
"c.	c #CD6363",
"d.	c #CB6363",
"e.	c #C86363",
"f.	c #C96767",
"g.	c #A12222",
"h.	c #9E1B1B",
"i.	c #9D1515",
"j.	c #9C0F0F",
"k.	c #9B0909",
"l.	c #9B0202",
"m.	c #A40000",
"n.	c #A90000",
"o.	c #AC0808",
"p.	c #AF1010",
"q.	c #B11C1C",
"r.	c #B22C2C",
"s.	c #AE4444",
"t.	c #AF3030",
"u.	c #720000",
"v.	c #AC3D3D",
"w.	c #D47575",
"x.	c #CE7070",
"y.	c #CC7070",
"z.	c #CA7070",
"A.	c #C76C6C",
"B.	c #971C1C",
"C.	c #CE7878",
"D.	c #CF7E7E",
"E.	c #CE7E7E",
"F.	c #C77373",
"G.	c #B95454",
"H.	c #D39292",
"I.	c #CC8585",
"J.	c #950000",
"K.	c #D0A600",
"L.	c #A31D1D",
"M.	c #CF9393",
"N.	c #9A0000",
"O.	c #CAA100",
"P.	c #C69E00",
"Q.	c #A40202",
"R.	c #C59F05",
"S.	c #CAAB31",
"T.	c #BE9700",
"U.	c #FAC800",
"V.	c #F7C500",
"W.	c #F6C400",
"X.	c #F2C000",
"Y.	c #E0D29E",
"Z.	c #C8AB37",
"`.	c #B48F00",
" +	c #F1C100",
".+	c #C6B161",
"++	c #CEB551",
"@+	c #D8B630",
"#+	c #DEB50F",
"$+	c #E3B400",
"%+	c #E0B300",
"&+	c #DAAE00",
"*+	c #B89200",
"=+	c #DECC8A",
"-+	c #DFCD86",
";+	c #C7AC3F",
">+	c #AB8700",
",+	c #DFB613",
"'+	c #BCAE7A",
")+	c #BFB077",
"!+	c #BFB27B",
"~+	c #C0B075",
"{+	c #C7B156",
"]+	c #CCAE39",
"^+	c #CEAB1D",
"/+	c #CEA503",
"(+	c #CCA200",
"_+	c #C89F00",
":+	c #C59D00",
"<+	c #B38F00",
"[+	c #DCC87A",
"}+	c #DCC773",
"|+	c #DFCA76",
"1+	c #C7AC41",
"2+	c #A17F00",
"3+	c #E5B600",
"4+	c #C2AC54",
"5+	c #BCAA67",
"6+	c #BDAC67",
"7+	c #C0AD67",
"8+	c #C2AF67",
"9+	c #C4B167",
"0+	c #C5B26A",
"a+	c #C7B56D",
"b+	c #C7B260",
"c+	c #C9B04D",
"d+	c #C7AB3A",
"e+	c #C5A52A",
"f+	c #C2A120",
"g+	c #BF9E1B",
"h+	c #BD9C1A",
"i+	c #BF9F20",
"j+	c #C5A733",
"k+	c #DBC467",
"l+	c #DCC465",
"m+	c #DEC565",
"n+	c #E1C967",
"o+	c #C4A838",
"p+	c #987800",
"q+	c #CDAA22",
"r+	c #BAA75C",
"s+	c #BBA759",
"t+	c #BDA959",
"u+	c #C0AA59",
"v+	c #C1AC59",
"w+	c #C3AE59",
"x+	c #C5B058",
"y+	c #C7B158",
"z+	c #CAB358",
"A+	c #CCB458",
"B+	c #CEB659",
"C+	c #D0B85A",
"D+	c #D3BB5A",
"E+	c #D5BC5B",
"F+	c #D7BE5A",
"G+	c #D8BF58",
"H+	c #DAC058",
"I+	c #DDC258",
"J+	c #DEC458",
"K+	c #E0C557",
"L+	c #E5C95A",
"M+	c #BA9D28",
"N+	c #907200",
"O+	c #CFA501",
"P+	c #A08417",
"Q+	c #AA8F22",
"R+	c #B1962E",
"S+	c #B79D36",
"T+	c #BCA23D",
"U+	c #BFA541",
"V+	c #C2A841",
"W+	c #C4AA41",
"X+	c #C6AB40",
"Y+	c #C7AC3D",
"Z+	c #C9AC39",
"`+	c #CAAD35",
" @	c #CCAE32",
".@	c #CFAF31",
"+@	c #D1B131",
"@@	c #D5B435",
"#@	c #D8B83A",
"$@	c #DCBD41",
"%@	c #E0C24B",
"&@	c #E2C44C",
"*@	c #E4C64B",
"=@	c #EACA4D",
"-@	c #A78A14",
";@	c #896D00",
">@	c #9D7D00",
",@	c #A28100",
"'@	c #A58300",
")@	c #A88500",
"!@	c #AB8800",
"~@	c #AE8A00",
"{@	c #B18D00",
"]@	c #B59000",
"^@	c #BB9500",
"/@	c #BE9800",
"(@	c #C29A00",
"_@	c #C8A000",
":@	c #CFA400",
"<@	c #D2A700",
"[@	c #D5A900",
"}@	c #D8AC00",
"|@	c #DCB103",
"1@	c #E1B70F",
"2@	c #E6BD1B",
"3@	c #EDC528",
"4@	c #8F7203",
"5@	c #CAA200",
"6@	c #A48200",
"7@	c #A78500",
"8@	c #AA8700",
"9@	c #AE8B00",
"0@	c #B28E00",
"a@	c #B49000",
"b@	c #B69100",
"c@	c #BA9400",
"d@	c #BC9600",
"e@	c #C19A00",
"f@	c #CDA400",
"g@	c #D1A700",
"h@	c #D5AA00",
"i@	c #D5AB00",
"j@	c #DBAF00",
"k@	c #DEB200",
"l@	c #E2B400",
"m@	c #E5B700",
"n@	c #EABB00",
"o@	c #7D6300",
"p@	c #C39C00",
"q@	c #B89300",
"r@	c #B99400",
"s@	c #B79200",
"t@	c #B08D00",
"u@	c #AD8A00",
"v@	c #A68400",
"w@	c #A38100",
"x@	c #9F7E00",
"y@	c #9B7B00",
"z@	c #977900",
"A@	c #967700",
"B@	c #967800",
"C@	c #C59E00",
"D@	c #DDB100",
"E@	c #E1B300",
"F@	c #E4B600",
"G@	c #E7B900",
"H@	c #EFBF00",
"I@	c #7B6200",
"J@	c #BD9700",
"K@	c #BB9400",
"L@	c #8D7000",
"M@	c #B99300",
"N@	c #E3B500",
"O@	c #E6B800",
"P@	c #E9BA00",
"Q@	c #EDBE00",
"R@	c #9E7E00",
"S@	c #876C00",
"T@	c #E8BA00",
"U@	c #EEBE00",
"V@	c #D8AD00",
"W@	c #856A00",
"X@	c #7F6500",
"Y@	c #816700",
"Z@	c #7D6400",
"`@	c #806600",
" #	c #7E6400",
"                                                                ",
"                  .                                             ",
"                + @                                             ",
"              # $ %                                 & * =       ",
"          - & ; > ,                       ' @ ) ! ~ , {         ",
"        ] ^ / ( _ ~             : < % ~ { * { ) # ' ' [         ",
"      } = | 1 2 3 4 * 5 5 ) * 6 7 8 9 0 a ! 5 , b c d           ",
"      ~ e _ f g h i j k l m n 8 o d & { ) # ' p q r l           ",
"    s e 2 t u v w x y z A B C D E F G H I J K L M N             ",
"  O P Q R S T U V W X Y Z `  ...+.@.#.$.%.&.*.=.-.;.            ",
"  >.,.'.).!.~.{.].^./.(._.:.<.[.}.|.1.2.3.4.5.6.7.8.            ",
"    9.0.a.b.c.d.e.f.g.h.i.j.k.l.6 o m.n.o.p.q.r.s.t.            ",
"      u.v.w.x.y.z.A.b                             2             ",
"          B.C.D.E.F.#                                           ",
"            ' G.H.I.J.                      K.                  ",
"                L.M.N.                      O.P.                ",
"                  9 Q.                      R.S.T.              ",
"      U.V.W.X.                              T.Y.Z.`.            ",
"         +.+++@+#+$+%+&+                    *+=+-+;+>+          ",
"          ,+'+)+!+~+{+]+^+/+(+_+:+          <+[+}+|+1+2+        ",
"          3+4+5+6+7+8+9+0+a+b+c+d+e+f+g+h+i+j+k+l+m+n+o+p+      ",
"            q+r+s+t+u+v+w+x+y+z+A+B+C+D+E+F+G+H+I+J+K+L+M+N+    ",
"            O+P+Q+R+S+T+U+V+W+X+Y+Z+`+ @.@+@@@#@$@%@&@*@=@-@;@  ",
"            K.>@,@'@)@!@~@{@]@*+^@/@(@:+_@(+:@<@[@}@|@1@2@3@4@  ",
"            5@6@7@8@9@0@a@b@*+c@d@e@P.f@g@h@i@}@j@k@l@m@n@P.o@  ",
"            p@a@q@r@s@<+t@u@8@v@w@x@y@z@A@B@C@D@E@F@G@H@q@I@    ",
"            J@K@                          L@M@N@O@P@Q@R@o@      ",
"                                          S@b@T@U@V@W@X@        ",
"                                          Y@^@ +~@I@            ",
"                                          Z@{@;@X@              ",
"                                          `@ #                  ",
"                                          `@                    "};
